# xmcd
#
# Track frame offsets:
# 150
# 15697
# 26512
# 38640
# 49972
# 60177
# 74447
# 90007
# 100860
# 113240
# 129354
# 143300
# 155875
# 172595
# 189242
# 202320
# 213267
# 227017
# 238667
# 251120
# 265480
# 281637
# 292780
# 309155
#
# Disc length: 4315 seconds
#
#
# Revision: 0
# Processed by: cddbd v1.5.2PL0 Copyright (c) Steve Scherf et al.
# Submitted via: FreeRIP 2.96 
#
DISCID=4210d918
DTITLE=Os Filhos do Rio Grande - 
DYEAR=1900
DGENRE=Gaúcho
TTITLE0=Bugio extraviado
TTITLE1=Namoro de gaita
TTITLE2=Abanando a Bombacha
TTITLE3=Babando no fole
TTITLE4=Trote do campina
TTITLE5=Dia de fandango
TTITLE6=Nos tempos da vovó
TTITLE7=Sesteada de xirus
TTITLE8=Alegria de gaúcho
TTITLE9=Quem ama sente saudade
TTITLE10=Bugiu da restinga funda
TTITLE11=Mexendo com a baixaria
TTITLE12=Xote do caminhoneiro
TTITLE13=Gaiteiro roncador
TTITLE14=Pra cá de Lages
TTITLE15=Filho do Rio Grande
TTITLE16=Nunca é cedo para amar
TTITLE17=Terra Gaúcha
TTITLE18=Par amar não tem distancia
TTITLE19=Tanho velho
TTITLE20=Meu canto diz o que sou
TTITLE21=Gaiteiro decidido
TTITLE22=Gaúha formosa
TTITLE23=Vaneirinha do casamento
EXTD=
EXTT0=
EXTT1=
EXTT2=
EXTT3=
EXTT4=
EXTT5=
EXTT6=
EXTT7=
EXTT8=
EXTT9=
EXTT10=
EXTT11=
EXTT12=
EXTT13=
EXTT14=
EXTT15=
EXTT16=
EXTT17=
EXTT18=
EXTT19=
EXTT20=
EXTT21=
EXTT22=
EXTT23=
PLAYORDER=
